<?xml version="1.0" encoding="utf-8"?>
<!-- Generator: Adobe Illustrator 27.0.1, SVG Export Plug-In . SVG Version: 6.00 Build 0)  -->
<svg version="1.1" id="Grupo_25832" xmlns="http://www.w3.org/2000/svg" xmlns:xlink="http://www.w3.org/1999/xlink" x="0px"
	 y="0px" viewBox="0 0 83 76" style="enable-background:new 0 0 83 76;" xml:space="preserve">
<style type="text/css">
	.st0{fill:#FF6D00;}
</style>
<g id="Grupo_25552" transform="translate(0 0)">
	<path id="Caminho_21110" class="st0" d="M76,32c-2.5-5-6.4-9.1-11.1-12l1.6-5l1.4,0.5c1.4,0.5,3-0.3,3.4-1.7l1.3-3.9
		c0.5-1.4-0.3-3-1.7-3.4l-5.3-1.7c-0.6-0.2-1.2,0.1-1.4,0.7c-0.2,0.6,0.1,1.2,0.7,1.4l0,0l5.3,1.7c0.3,0.1,0.4,0.4,0.3,0.7L69.3,13
		c-0.1,0.3-0.4,0.4-0.7,0.3L53.1,8.2c-0.1,0-0.2-0.1-0.3-0.3c-0.1-0.1-0.1-0.3,0-0.4l1.3-3.9c0.1-0.3,0.4-0.4,0.7-0.3l5.5,1.8
		c0.6,0.2,1.2-0.1,1.4-0.7C61.8,3.8,61.5,3.2,61,3l-5.5-1.8c-1.4-0.5-3,0.3-3.4,1.7l-1.3,3.9c-0.5,1.4,0.3,3,1.7,3.4l1.4,0.5l-1.6,5
		c-2.3-0.2-4.5-0.2-6.8,0.2c-0.6,0.1-1,0.6-0.9,1.2s0.6,1,1.2,0.9l0,0c15-2.1,28.9,8.4,30.9,23.4c0.6,4.1,0.2,8.4-1.1,12.3
		C70.9,68.1,55.3,75.9,41,71.2c-14.4-4.7-22.2-20.3-17.5-34.6C26.2,28.4,32.7,22,41,19.2c0.6-0.2,0.9-0.8,0.7-1.4s-0.8-0.9-1.4-0.7
		l0,0c-1.9,0.6-3.7,1.4-5.4,2.4H26c-0.6,0-1.1,0.5-1.1,1.1s0.5,1.1,1.1,1.1h5.5c-4.5,3.4-7.9,8-9.8,13.2H14c-0.6,0-1.1,0.5-1.1,1.1
		s0.5,1.1,1.1,1.1l0,0h7c-1.2,4.3-1.5,8.8-0.7,13.2H8.5c-0.6,0-1.1,0.5-1.1,1.1s0.5,1.1,1.1,1.1h12.3c1.3,5,3.8,9.5,7.4,13.2h-9.9
		c-0.6,0-1.1,0.5-1.1,1.1s0.5,1.1,1.1,1.1h12.3c12.6,10.5,31.3,8.8,41.8-3.8C79.8,55.2,81.3,42.5,76,32z M54.5,16.1l1.5-4.6l8.4,2.8
		l-1.5,4.6C60.2,17.5,57.4,16.6,54.5,16.1L54.5,16.1z"/>
	<path id="Caminho_21111" class="st0" d="M5,21.8h13.7c0.6,0,1.1-0.5,1.1-1.1s-0.5-1.1-1.1-1.1l0,0H5c-0.6,0-1.1,0.5-1.1,1.1
		S4.3,21.8,5,21.8z"/>
	<path id="Caminho_21112" class="st0" d="M9.4,27.3c-0.6,0-1.1,0.5-1.1,1.1s0.5,1.1,1.1,1.1h10.4c0.6,0,1.1-0.5,1.1-1.1
		s-0.5-1.1-1.1-1.1l0,0H9.4z"/>
	<path id="Caminho_21113" class="st0" d="M13.8,43.8c0-0.6-0.5-1.1-1.1-1.1l0,0H5c-0.6,0-1.1,0.5-1.1,1.1s0.5,1.1,1.1,1.1h7.8
		C13.3,44.9,13.8,44.4,13.8,43.8L13.8,43.8z"/>
	<path id="Caminho_21114" class="st0" d="M18.2,59.2c0-0.6-0.5-1.1-1.1-1.1l0,0h-5.4c-0.6,0-1.1,0.5-1.1,1.1s0.5,1.1,1.1,1.1h5.4
		C17.7,60.4,18.2,59.9,18.2,59.2C18.2,59.3,18.2,59.3,18.2,59.2z"/>
	<path id="Caminho_21115" class="st0" d="M27.3,38c-3.9,12.3,2.8,25.4,15.1,29.4c12.2,3.9,25.2-2.7,29.3-14.8l0,0l0,0
		c4-12.3-2.7-25.5-15-29.5c-2.2-0.7-4.5-1.1-6.9-1.1s-4.8,0.3-7,1c-1.3,0.4-2.6,0.9-3.8,1.5C33.5,27.2,29.3,32.1,27.3,38L27.3,38z
		 M69.9,50.8l-15.6-5.1c0.2-1.8-0.7-3.5-2.3-4.5l5.1-15.6C67.2,29.5,72.7,40.4,69.9,50.8L69.9,50.8z M50.7,47.6
		c-1.3,0.6-2.8,0.1-3.5-1.1s-0.1-2.8,1.1-3.5c0.6-0.3,1.3-0.4,2-0.1l0,0c1.3,0.4,2.1,1.9,1.6,3.2l0,0C51.8,46.7,51.3,47.3,50.7,47.6
		L50.7,47.6z M49.5,24.2c1.9,0,3.8,0.3,5.6,0.8L50,40.6c-0.9-0.1-1.8,0.1-2.6,0.5c-0.3,0.1-0.5,0.3-0.8,0.5l-7.4-6.7
		c-0.5-0.4-1.1-0.4-1.6,0.1s-0.4,1.1,0.1,1.6l7.5,6.8C45.1,43.6,45,43.8,45,44c-0.8,2.5,0.5,5.2,3,6c0.3,0.1,0.6,0.2,1,0.2l0.4,3.2
		c0.1,0.6,0.5,1,1.1,1h0.1c0.6-0.1,1-0.6,1-1.2l0,0L51.2,50c0.2-0.1,0.3-0.1,0.5-0.2c0.8-0.4,1.5-1,1.9-1.8l15.6,5.1
		c-1.7,4.5-5,8.3-9.2,10.7l-1.2-2.4c-0.3-0.5-0.9-0.8-1.5-0.5c-0.5,0.3-0.8,0.9-0.5,1.5l1.2,2.4c-4.4,2-9.4,2.4-14.1,1.1l0.9-2.6
		c0.2-0.6-0.1-1.2-0.7-1.4s-1.2,0.1-1.4,0.7L41.9,65c-4.5-1.8-8.3-5-10.7-9.2l2.4-1.2c0.5-0.3,0.8-0.9,0.5-1.5
		c-0.3-0.5-0.9-0.8-1.5-0.5l-2.4,1.2c-2-4.4-2.3-9.4-1-14.1l2.6,0.8c0.6,0.2,1.2-0.1,1.4-0.7c0.2-0.6-0.1-1.2-0.7-1.4l0,0l-2.6-0.8
		c1.7-4.5,5-8.3,9.2-10.7l1.2,2.4c0.3,0.5,0.9,0.8,1.5,0.5s0.8-0.9,0.5-1.5L41,26C43.7,24.8,46.6,24.2,49.5,24.2L49.5,24.2z"/>
</g>
</svg>
