<?xml version="1.0" encoding="utf-8"?>
<!-- Generator: Adobe Illustrator 27.0.1, SVG Export Plug-In . SVG Version: 6.00 Build 0)  -->
<svg version="1.1" id="Grupo_25837" xmlns="http://www.w3.org/2000/svg" xmlns:xlink="http://www.w3.org/1999/xlink" x="0px"
	 y="0px" viewBox="0 0 83 76" style="enable-background:new 0 0 83 76;" xml:space="preserve">
<style type="text/css">
	.st0{fill:#FF6D00;}
</style>
<g>
	<path id="Caminho_21164" class="st0" d="M41.6,7.3h31.9c3,0,4.7,1.6,4.7,4.6v52c0,3-1.7,4.6-4.7,4.6h-64c-3,0-4.7-1.6-4.7-4.6V12
		c0-3,1.6-4.6,4.7-4.6L41.6,7.3z M7.2,16.8v0.8c0,15.5,0,30.9,0,46.4c0,1.8,0.6,2.3,2.3,2.3h63.9c1.7,0,2.3-0.6,2.3-2.3V16.8H7.2z
		 M7.2,14.4h68.5v-2.3c0-1.9-0.6-2.4-2.4-2.4H9.6c-0.2,0-0.4,0-0.7,0c-0.9,0-1.7,0.8-1.7,1.7C7.2,12.4,7.2,13.3,7.2,14.4L7.2,14.4z"
		/>
	<path id="Caminho_21165" class="st0" d="M29.7,41.5h4.9c3.7,0,7.5,0,11.2,0c1.2,0,1.6,0.4,1.6,1.6c-0.2,10.4-8.9,18.7-19.3,18.5
		C17.7,61.4,9.4,52.8,9.6,42.4c0.2-9,6.8-16.7,15.7-18.2c1-0.1,2-0.2,2.9-0.3c1,0,1.5,0.4,1.5,1.5c0,5.1,0,10.2,0,15.3L29.7,41.5z
		 M27.3,26.3C20.8,26.7,15.2,30.9,13,37c-2.1,5.6-0.9,12,3.1,16.4c0.1-0.1,0.2-0.1,0.2-0.2c3.6-3.6,7.1-7.1,10.7-10.7
		c0.2-0.2,0.3-0.6,0.4-0.9c0-4.9,0-9.9,0-14.8C27.3,26.7,27.3,26.5,27.3,26.3L27.3,26.3z M17.7,55.1c6.8,6,17.2,5.3,23.2-1.5
		c2.4-2.7,3.8-6.1,4-9.7c-0.1,0-0.2,0-0.3,0c-5.1,0-10.2,0-15.3,0c-0.3,0-0.5,0.2-0.7,0.4c-1.2,1.1-2.3,2.3-3.5,3.4L17.7,55.1z"/>
	<path id="Caminho_21166" class="st0" d="M40.9,40.4c-2.8,0-5.7,0-8.5,0c-1.2,0-1.6-0.4-1.6-1.5c0-5.7,0-11.3,0-17
		c0-1.1,0.4-1.5,1.5-1.5c9,0.2,16.7,6.7,18.3,15.6c0.1,1,0.2,2,0.3,3c0,0.9-0.4,1.4-1.4,1.4C46.7,40.4,43.8,40.4,40.9,40.4z
		 M48.5,38c-0.6-8.2-7.1-14.6-15.2-15.2V38H48.5z"/>
	<path id="Caminho_21167" class="st0" d="M62.8,30.9c3,0,6.1,0,9.1,0c1.2,0,1.6,0.4,1.6,1.5c0,2.9,0,5.8,0,8.7
		c0,1.2-0.4,1.5-1.6,1.5c-6.1,0-12.1,0-18.2,0c-1.2,0-1.5-0.4-1.6-1.5c0-2.9,0-5.8,0-8.7c0-1.2,0.4-1.5,1.5-1.5
		C56.7,30.9,59.7,30.9,62.8,30.9z M71,33.3H54.6v7H71V33.3z"/>
	<path id="Caminho_21168" class="st0" d="M62.8,25c-3,0-6.1,0-9.1,0c-0.4,0-0.7,0-1-0.2c-0.3-0.3-0.5-0.8-0.4-1.2
		c0.2-0.4,0.6-0.7,1-0.9c0.7-0.1,1.4-0.1,2.1,0h16.2c0.2,0,0.4,0,0.6,0c0.7,0,1.2,0.5,1.2,1.1c0,0,0,0,0,0.1c0,0.6-0.5,1.2-1.2,1.2
		h-0.1c-1.5,0-3.1,0-4.6,0L62.8,25z"/>
	<path id="Caminho_21169" class="st0" d="M60.4,45.1c2.3,0,4.5,0,6.8,0c0.9,0,1.5,0.4,1.5,1.2s-0.5,1.2-1.5,1.2c-4.5,0-9.1,0-13.6,0
		c-0.9,0-1.5-0.4-1.5-1.2s0.5-1.2,1.5-1.2C55.9,45.1,58.2,45.1,60.4,45.1z"/>
	<path id="Caminho_21170" class="st0" d="M60.4,49.8c2.2,0,4.5,0,6.7,0c1,0,1.5,0.5,1.5,1.2s-0.6,1.1-1.5,1.1c-4.5,0-9,0-13.5,0
		c-1,0-1.5-0.5-1.5-1.2s0.6-1.1,1.5-1.1C55.9,49.8,58.2,49.8,60.4,49.8z"/>
	<path id="Caminho_21171" class="st0" d="M60.3,56.9c-2.2,0-4.5,0-6.7,0c-0.9,0-1.5-0.4-1.5-1.2s0.5-1.2,1.5-1.2c4.5,0,9.1,0,13.6,0
		c0.9,0,1.5,0.4,1.5,1.2s-0.5,1.2-1.5,1.2C64.9,56.9,62.6,56.9,60.3,56.9z"/>
	<path id="Caminho_21172" class="st0" d="M60.4,59.2c2.3,0,4.5,0,6.8,0c0.9,0,1.5,0.4,1.5,1.2s-0.5,1.2-1.5,1.2c-4.5,0-9.1,0-13.6,0
		c-0.9,0-1.5-0.4-1.5-1.2s0.5-1.2,1.5-1.2C55.9,59.2,58.2,59.2,60.4,59.2z"/>
	<path id="Caminho_21173" class="st0" d="M58.1,28.6c-1.5,0-3,0-4.4,0c-0.9,0-1.5-0.4-1.5-1.2s0.5-1.2,1.5-1.2c3,0,5.9,0,8.9,0
		c0.9,0,1.5,0.4,1.5,1.2s-0.5,1.2-1.5,1.2C61,28.6,59.5,28.6,58.1,28.6z"/>
	<path id="Caminho_21174" class="st0" d="M66.9,28.6c-0.1,0-0.2,0-0.4,0c-0.9,0-1.4-0.5-1.4-1.2s0.5-1.1,1.4-1.2c0.3,0,0.6,0,0.9,0
		c0.7,0,1.2,0.5,1.2,1.1c0,0,0,0,0,0.1c0,0.7-0.6,1.2-1.2,1.2l0,0C67.2,28.6,67.1,28.6,66.9,28.6z"/>
	<path id="Caminho_21175" class="st0" d="M71.6,47.4c-0.2,0-0.4,0-0.7,0c-0.6,0-1.1-0.6-1.1-1.2c0-0.6,0.5-1.1,1.1-1.1
		c0.4,0,0.8,0,1.2,0c0.6-0.1,1.2,0.4,1.3,1.1c0.1,0.6-0.4,1.2-1.1,1.3c-0.1,0-0.1,0-0.2,0C71.9,47.4,71.8,47.4,71.6,47.4L71.6,47.4z
		"/>
	<path id="Caminho_21176" class="st0" d="M71.6,52.2c-0.1,0-0.2,0-0.4,0c-0.9,0-1.4-0.5-1.4-1.2s0.5-1.1,1.4-1.2c0.3,0,0.5,0,0.8,0
		c0.7-0.1,1.2,0.4,1.3,1.1V51c0,0.7-0.5,1.1-1.3,1.2C71.9,52.2,71.8,52.2,71.6,52.2z"/>
	<path id="Caminho_21177" class="st0" d="M71.6,54.5c1.2,0,1.8,0.4,1.8,1.2s-0.6,1.2-1.8,1.2s-1.8-0.4-1.8-1.2S70.4,54.5,71.6,54.5z
		"/>
	<path id="Caminho_21178" class="st0" d="M71.6,59.2c1.2,0,1.8,0.4,1.8,1.2s-0.6,1.2-1.8,1.2s-1.8-0.4-1.8-1.2S70.4,59.2,71.6,59.2z
		"/>
	<path id="Caminho_21179" class="st0" d="M10.1,13.2c-0.2,0-0.4,0-0.7,0c-0.6-0.1-1.1-0.6-1-1.3c0.1-0.6,0.5-1,1.1-1
		c0.4,0,0.8,0,1.2,0c0.7-0.1,1.2,0.4,1.3,1.1s-0.4,1.2-1.1,1.3c-0.1,0-0.1,0-0.2,0C10.5,13.2,10.3,13.2,10.1,13.2L10.1,13.2z"/>
	<path id="Caminho_21180" class="st0" d="M15,10.9c0.2,0,0.4,0,0.6,0c0.6,0,1.1,0.6,1.1,1.2c0,0.6-0.5,1.1-1.1,1.1
		c-0.4,0-0.8,0-1.3,0c-0.6,0-1.2-0.5-1.2-1.2c0-0.6,0.5-1.2,1.2-1.2C14.5,10.9,14.8,10.9,15,10.9z"/>
	<path id="Caminho_21181" class="st0" d="M19.7,10.9c0.2,0,0.4,0,0.7,0c0.6,0,1.1,0.6,1,1.2c0,0.6-0.4,1.1-1,1.2
		c-0.4,0.1-0.9,0.1-1.3,0c-0.6,0-1.2-0.5-1.2-1.2s0.5-1.2,1.2-1.2C19.3,10.9,19.5,10.9,19.7,10.9L19.7,10.9z"/>
</g>
</svg>
