<?xml version="1.0" encoding="utf-8"?>
<!-- Generator: Adobe Illustrator 27.0.1, SVG Export Plug-In . SVG Version: 6.00 Build 0)  -->
<svg version="1.1" id="Camada_1" xmlns="http://www.w3.org/2000/svg" xmlns:xlink="http://www.w3.org/1999/xlink" x="0px" y="0px"
	 viewBox="0 0 61.9 75" style="enable-background:new 0 0 61.9 75;" xml:space="preserve">
<style type="text/css">
	.st0{fill:#FF6D00;}
</style>
<g transform="translate(-982.065 -3421)">
	<g transform="translate(857.353 3314.974)">
		<path class="st0" d="M183,181h-54.6c-1.9,0.1-3.5-1.3-3.6-3.2v-68.6c0.1-1.9,1.8-3.3,3.6-3.2H183c1.9-0.1,3.5,1.3,3.6,3.2v68.6
			C186.5,179.7,184.8,181.1,183,181z M128.3,108.2c-0.6,0-1.1,0.4-1.1,1v68.6c0,0.6,0.5,1,1.1,1H183c0.6,0,1.1-0.4,1.1-1v-68.6
			c0-0.6-0.5-1-1.1-1L128.3,108.2z"/>
		<g transform="translate(134.725 162.901)">
			<path class="st0" d="M0.7,0C0.3,0,0,0.2,0,0.5V9c0,0.3,0.3,0.5,0.7,0.5S1.5,9.3,1.5,9V0.5C1.5,0.2,1.1,0,0.7,0z"/>
			<path class="st0" d="M4.4,0C4,0,3.7,0.2,3.7,0.5V9c0,0.3,0.3,0.5,0.7,0.5S5.1,9.3,5.1,9V0.5C5.1,0.2,4.8,0,4.4,0z"/>
			<path class="st0" d="M8.1,0C7.7,0,7.3,0.2,7.3,0.5v7.2c0,0.3,0.3,0.5,0.7,0.5S8.8,8,8.8,7.8V0.5C8.8,0.2,8.5,0,8.1,0z"/>
			<path class="st0" d="M11.8,0C11.3,0,11,0.2,11,0.5v7.2c0,0.3,0.3,0.5,0.7,0.5s0.7-0.2,0.7-0.5V0.5C12.5,0.2,12.2,0,11.8,0z"/>
			<path class="st0" d="M15.4,0c-0.4,0-0.7,0.2-0.7,0.5V9c0,0.3,0.3,0.5,0.7,0.5s0.7-0.2,0.7-0.5V0.5C16.2,0.2,15.8,0,15.4,0z"/>
			<path class="st0" d="M19.1,0c-0.4,0-0.7,0.2-0.7,0.5V9c0,0.3,0.3,0.5,0.7,0.5s0.7-0.2,0.7-0.5V0.5C19.8,0.2,19.5,0,19.1,0z"/>
			<path class="st0" d="M22.8,0C22.4,0,22,0.2,22,0.5V9c0,0.3,0.3,0.5,0.7,0.5s0.7-0.2,0.7-0.5V0.5C23.5,0.2,23.2,0,22.8,0z"/>
			<path class="st0" d="M26.4,0c-0.4,0-0.7,0.2-0.7,0.5V9c0,0.3,0.3,0.5,0.7,0.5s0.7-0.2,0.7-0.5V0.5C27.2,0.2,26.8,0,26.4,0z"/>
			<path class="st0" d="M30.1,0c-0.4,0-0.7,0.2-0.7,0.5v7.2c0,0.3,0.3,0.5,0.7,0.5s0.7-0.2,0.7-0.5V0.5C30.8,0.2,30.5,0,30.1,0z"/>
			<path class="st0" d="M33.8,0C33.4,0,33,0.2,33,0.5v7.2c0,0.3,0.3,0.5,0.7,0.5s0.7-0.2,0.7-0.5V0.5C34.5,0.2,34.2,0,33.8,0z"/>
			<path class="st0" d="M37.4,0c-0.4,0-0.7,0.2-0.7,0.5V9c0,0.3,0.3,0.5,0.7,0.5s0.7-0.2,0.7-0.5V0.5C38.2,0.2,37.8,0,37.4,0z"/>
			<path class="st0" d="M41.1,0c-0.4,0-0.7,0.2-0.7,0.5V9c0,0.3,0.3,0.5,0.7,0.5s0.7-0.2,0.7-0.5V0.5C41.8,0.2,41.5,0,41.1,0z"/>
		</g>
		<path class="st0" d="M136,118.9h18.4c0.6,0,1-0.4,1-1s-0.4-1-1-1H136c-0.6,0-1,0.4-1,1S135.5,118.9,136,118.9z"/>
		<path class="st0" d="M136,121.9h11.3c0.6,0,1-0.4,1-1s-0.4-1-1-1H136c-0.6,0-1,0.4-1,1S135.5,121.9,136,121.9z"/>
	</g>
	<path class="st0" d="M993.3,3449.7h29.7c0.7,0,1.3-0.6,1.3-1.3s-0.6-1.3-1.3-1.3h-29.7c-0.7,0-1.3,0.6-1.3,1.3
		S992.6,3449.7,993.3,3449.7z"/>
	<path class="st0" d="M1010.8,3455.7c0-0.7-0.6-1.3-1.3-1.3c0,0,0,0,0,0h-16.3c-0.7,0-1.3,0.6-1.3,1.3s0.6,1.3,1.3,1.3c0,0,0,0,0,0
		h16.3C1010.3,3457,1010.8,3456.4,1010.8,3455.7z"/>
	<path class="st0" d="M1017.3,3462.3c0-0.7-0.6-1.3-1.3-1.3c0,0,0,0,0,0h-22.7c-0.7,0-1.3,0.6-1.3,1.3s0.6,1.3,1.3,1.3c0,0,0,0,0,0
		h22.7C1016.7,3463.5,1017.3,3462.9,1017.3,3462.3z"/>
	<path class="st0" d="M1017.3,3469.5c0-0.7-0.6-1.3-1.3-1.3c0,0,0,0,0,0h-22.7c-0.7,0-1.3,0.6-1.3,1.3s0.6,1.3,1.3,1.3c0,0,0,0,0,0
		h22.7C1016.7,3470.8,1017.3,3470.2,1017.3,3469.5z"/>
</g>
</svg>
