<?xml version="1.0" encoding="utf-8"?>
<!-- Generator: Adobe Illustrator 27.0.1, SVG Export Plug-In . SVG Version: 6.00 Build 0)  -->
<svg version="1.1" id="Camada_1" xmlns="http://www.w3.org/2000/svg" xmlns:xlink="http://www.w3.org/1999/xlink" x="0px" y="0px"
	 viewBox="0 0 83 76" style="enable-background:new 0 0 83 76;" xml:space="preserve">
<style type="text/css">
	.st0{fill:#FF6D00;}
</style>
<g id="Grupo_25839" transform="translate(0 0)">
	<path id="Caminho_21182" class="st0" d="M82.9,35.9c-0.4,0.5-0.9,0.9-1.6,0.6c-0.7-0.3-0.8-0.9-0.8-1.6c0-5.4,0-10.8,0-16.2
		c0-1.8-0.8-2.6-2.5-2.6c-11,0-22,0-33,0h-1v7.4h1.1c9.2,0,18.5,0,27.7,0c0.4-0.1,0.7,0,1.1,0.1c0.4,0.3,0.7,0.7,0.8,1.1
		c0.1,0.5-0.3,1-0.9,1.1c0,0,0,0-0.1,0c-0.3,0-0.7,0.1-1,0c-9.2,0-18.4,0-27.6,0h-1v4.3h28.8c1.3,0,1.9,0.4,1.9,1.2
		c0,0.8-0.6,1.2-1.9,1.2c-9.4,0-18.7,0-28.1,0c-0.5-0.1-0.9,0.2-1.1,0.7c-0.5,1.3-1.8,2.1-3.2,2.1c-0.8,0-1.7,0-2.5,0V37h34.5
		c0.2,0,0.4,0,0.6,0c1.1,0,1.7,0.4,1.7,1.2s-0.6,1.2-1.7,1.2c-8.9,0-17.9,0-26.8,0h-8.5v4.3h0.8c11.4,0,22.8,0,34.2,0
		c0.4-0.1,0.8,0,1.1,0.1c0.4,0.3,0.7,0.6,0.9,1.1c0.1,0.5-0.3,1.1-0.8,1.1c0,0,0,0-0.1,0c-0.3,0.1-0.6,0.1-1,0.1
		c-14.2,0-28.5,0-42.7,0c-1.3,0-1.8-0.4-1.9-1.2c0-0.8,0.6-1.3,1.9-1.3c1.4,0,2.8,0,4.5,0l-1.7-2c-0.4-0.5-0.9-0.9-1.3-1.5
		c-0.4-0.6-1.1-0.9-1.8-0.8c-0.6,0.1-1.2-0.2-1.5-0.7c-0.2-0.6,0-1.2,0.5-1.6c0-0.1-0.1-0.1-0.1-0.2c-0.6-1.2-2-1.9-3.3-1.6
		c-0.7,0.1-1.5,0.1-2.2,0c0,0.3,0,0.6,0,0.9c0,6.8,0,13.6,0,20.4c0,1.9,0.8,2.6,2.7,2.6c1.3,0,2.5,0,3.8,0C31,59,32,59.8,32.2,61
		c0,0.1,0,0.3,0,0.4c0,3.3,0,6.5,0,9.8l0.2,0.2c0.1-0.2,0.3-0.5,0.4-0.7c2.9-3.4,5.8-6.7,8.7-10.1c0.8-1,2.1-1.6,3.4-1.6
		c10.9,0,21.9,0,32.8,0c1.7,0,2.9-0.7,2.8-2.8c-0.1-5,0-10,0-15c0-1.1,0.6-1.8,1.5-1.5c0.4,0.1,0.6,0.5,1,0.8V58
		c-0.3,1.3-1.1,2.3-2.2,3c-0.9,0.4-1.9,0.7-2.9,0.7c-10.9,0-21.8,0.1-32.7,0c-0.8,0-1.5,0.3-1.9,0.9c-3.1,3.7-6.3,7.3-9.5,11
		c-0.5,0.8-1.4,1.2-2.3,1c-1.1-0.2-1.9-1.3-1.7-2.5c0-3.1,0-6.3,0-9.4v-1c-1.4,0-2.7,0-4.1,0c-2.1,0.1-4-1.3-4.6-3.4
		c-0.1-0.6-0.2-1.2-0.2-1.8c0-6.7,0-13.4,0-20v-1.1h-1c-5.2,0-10.4,0-15.6,0c-2.7,0-4-1.4-4-4c0-8.7,0-17.3,0-26c0-2.7,1.4-4,4-4
		c4.7,0,9.5,0,14.2,0c0.2,0,0.5,0,0.7,0c0.7,0.1,1.1,0.7,1,1.4c-0.1,0.5-0.5,1-1,1c-0.3,0-0.5,0-0.8,0h-14C2.9,3.8,2.6,4,2.6,5.4
		c0,8.6,0,17.3,0,25.9c0,1.3,0.3,1.6,1.6,1.6c7.5,0,15,0,22.5,0c1.1-0.1,2.2,0.4,2.9,1.3c1.6,1.9,3.3,3.8,5,5.7
		c0.2,0.2,0.4,0.5,0.8,0.9V39c0-1.3,0-2.6,0-4c-0.1-1.1,0.6-2.1,1.7-2.2c0.2,0,0.3,0,0.5,0c0.8,0,1.6,0,2.3,0c1.2,0,1.6-0.3,1.6-1.6
		c0-8.7,0-17.3,0-26c0-0.1,0-0.2,0-0.2c0-1.1-0.4-1.4-1.4-1.4c-5,0-9.9,0-14.9,0c-0.3,0-0.5,0-0.8,0c-0.7-0.1-1.1-0.7-1-1.4
		c0.1-0.5,0.5-0.9,0.9-1c0.2,0,0.5-0.1,0.7,0c5,0,10,0,14.9,0c2.5,0,3.9,1.4,3.9,3.9s0,5,0,7.5v1h1.1c10.9,0,21.8,0,32.7,0
		c1.9-0.2,3.8,0.9,4.6,2.6c0.2,0.3,0.3,0.7,0.4,1L82.9,35.9z"/>
	<path id="Caminho_21183" class="st0" d="M11.6,22.2c-2,0-3.6-1.7-3.6-3.7s1.7-3.6,3.7-3.6s3.6,1.7,3.6,3.7
		C15.3,20.6,13.6,22.2,11.6,22.2z M11.7,17.3c-0.7,0-1.2,0.5-1.2,1.2s0.5,1.2,1.2,1.2s1.2-0.5,1.3-1.1
		C12.9,17.9,12.4,17.4,11.7,17.3L11.7,17.3z"/>
	<path id="Caminho_21184" class="st0" d="M21.8,22.2c-2,0-3.6-1.7-3.6-3.7s1.7-3.6,3.7-3.6s3.6,1.7,3.6,3.7l0,0
		C25.4,20.6,23.8,22.2,21.8,22.2z M21.8,19.8c0.7,0,1.2-0.6,1.2-1.3s-0.6-1.2-1.3-1.2c-0.7,0-1.2,0.6-1.2,1.3
		C20.6,19.3,21.1,19.8,21.8,19.8L21.8,19.8z"/>
	<path id="Caminho_21185" class="st0" d="M35.5,18.5c0,2-1.6,3.7-3.6,3.7s-3.7-1.6-3.7-3.6s1.6-3.7,3.6-3.7l0,0
		C33.9,14.9,35.5,16.5,35.5,18.5L35.5,18.5z M31.9,17.3c-0.7,0-1.2,0.6-1.2,1.2c0,0.7,0.6,1.2,1.2,1.2c0.7,0,1.2-0.6,1.2-1.2
		S32.6,17.3,31.9,17.3L31.9,17.3z"/>
	<path id="Caminho_21186" class="st0" d="M51.5,52.9H30.2c-0.3,0-0.6,0-0.9,0c-0.6,0-1.1-0.5-1.1-1.1c-0.1-0.6,0.3-1.1,0.9-1.2
		c0.3-0.1,0.6-0.1,0.9-0.1c14.3,0,28.6,0,43,0c0.3,0,0.5,0,0.8,0.1c0.6,0.1,1,0.6,0.9,1.2c0,0.6-0.5,1.1-1.1,1.1c-0.3,0-0.6,0-0.9,0
		H51.5z"/>
</g>
</svg>
