<?xml version="1.0" encoding="utf-8"?>
<!-- Generator: Adobe Illustrator 27.0.1, SVG Export Plug-In . SVG Version: 6.00 Build 0)  -->
<svg version="1.1" id="Grupo_25556" xmlns="http://www.w3.org/2000/svg" xmlns:xlink="http://www.w3.org/1999/xlink" x="0px"
	 y="0px" viewBox="0 0 83 76" style="enable-background:new 0 0 83 76;" xml:space="preserve">
<style type="text/css">
	.st0{fill:#FF6D00;}
</style>
<g id="Grupo_25555">
	<g id="Grupo_25554">
		<path id="Caminho_21116" class="st0" d="M12.6,5.4h-1.3C10.6,5.4,10,6,10,6.7S10.6,8,11.3,8h1.3c0.7,0,1.3-0.6,1.3-1.3
			C13.9,5.9,13.3,5.4,12.6,5.4z"/>
		<path id="Caminho_21117" class="st0" d="M18.9,5.4h-1.3c-0.7,0-1.3,0.6-1.3,1.3S16.9,8,17.6,8l0,0h1.3c0.7,0,1.3-0.6,1.3-1.3
			C20.2,5.9,19.6,5.4,18.9,5.4z"/>
		<path id="Caminho_21118" class="st0" d="M25.2,5.4h-1.3c-0.7,0-1.3,0.6-1.3,1.3S23.2,8,23.9,8h1.3c0.7,0,1.3-0.6,1.3-1.3
			C26.4,5.9,25.9,5.4,25.2,5.4z"/>
		<path id="Caminho_21119" class="st0" d="M64.1,5.4H30.2c-0.7,0-1.3,0.6-1.3,1.3S29.5,8,30.2,8l0,0h33.9c0.7,0,1.3-0.6,1.3-1.3
			C65.4,5.9,64.8,5.4,64.1,5.4L64.1,5.4L64.1,5.4z"/>
		<path id="Caminho_21120" class="st0" d="M76.6,45.5h-1.3v-6.3c0-3.5-1.3-6.9-3.8-9.4V6.6c0-3.5-2.8-6.3-6.3-6.3H10.1
			c-3.5,0-6.3,2.8-6.3,6.3v50.2c0,3.5,2.8,6.3,6.3,6.3H44v3.8c0,4.8,3.9,8.8,8.8,8.8h17.6c4.8,0,8.8-3.9,8.8-8.8V48
			C79.2,46.7,78,45.5,76.6,45.5z M72.9,39.3v6.3H50.3v-6.3c0.2-6.2,5.4-11.2,11.6-11C67.9,28.4,72.7,33.3,72.9,39.3L72.9,39.3z
			 M6.4,6.6c0-2.1,1.7-3.8,3.8-3.8h55.2c2.1,0,3.8,1.7,3.8,3.8v3.8H6.4V6.6z M44,48v12.6H10.1c-2.1,0-3.8-1.7-3.8-3.8V12.9h62.8
			v14.8c-6.4-4.2-14.9-2.4-19.1,4c-1.5,2.2-2.3,4.9-2.2,7.6v6.3h-1.3C45.1,45.5,44,46.7,44,48L44,48z M76.6,50.5h-3.8
			c-0.7,0-1.3,0.6-1.3,1.3s0.6,1.3,1.3,1.3l0,0h3.8v2.5h-3.8c-0.7,0-1.3,0.6-1.3,1.3s0.6,1.3,1.3,1.3l0,0h3.8v2.5h-3.8
			c-0.7,0-1.3,0.6-1.3,1.3s0.6,1.3,1.3,1.3l0,0h3.8v2.5h-3.8c-0.7,0-1.3,0.6-1.3,1.3c0,0.7,0.6,1.3,1.3,1.3h3.6
			c-0.6,2.9-3.2,5-6.2,5H52.8c-3,0-5.5-2.1-6.2-5h3.6c0.7,0,1.3-0.6,1.3-1.3c0-0.7-0.6-1.3-1.3-1.3l0,0h-3.8v-2.5h3.8
			c0.7,0,1.3-0.6,1.3-1.3s-0.6-1.3-1.3-1.3l0,0h-3.8v-2.5h3.8c0.7,0,1.3-0.6,1.3-1.3s-0.6-1.3-1.3-1.3h-3.8v-2.5h3.8
			c0.7,0,1.3-0.6,1.3-1.3s-0.6-1.3-1.3-1.3l0,0h-3.8V48h30.1L76.6,50.5L76.6,50.5z"/>
		<path id="Caminho_21121" class="st0" d="M60.3,61.6v2.7c0,0.7,0.6,1.3,1.3,1.3s1.3-0.6,1.3-1.3v-2.7c2-0.7,3-2.8,2.3-4.8
			s-2.8-3-4.8-2.3s-3,2.8-2.3,4.8C58.4,60.4,59.3,61.2,60.3,61.6z M61.6,56.8c0.7,0,1.3,0.6,1.3,1.3s-0.6,1.3-1.3,1.3
			s-1.3-0.6-1.3-1.3S60.9,56.8,61.6,56.8L61.6,56.8z"/>
		<path id="Caminho_21122" class="st0" d="M25.2,25.5c-0.7,0-1.3,0.6-1.3,1.3l0,0v3.8h-10v-10h5c0.7,0,1.3-0.6,1.3-1.3
			c0-0.7-0.6-1.3-1.3-1.3h-5c-1.4,0-2.5,1.1-2.5,2.5l0,0v10c0,1.4,1.1,2.5,2.5,2.5h10c1.4,0,2.5-1.1,2.5-2.5v-3.8
			C26.4,26,25.9,25.5,25.2,25.5z"/>
		<path id="Caminho_21123" class="st0" d="M17.3,23.3c-0.5-0.5-1.3-0.5-1.8,0s-0.5,1.3,0,1.8l2.5,2.5c0.2,0.2,0.6,0.4,0.9,0.4H19
			c0.4,0,0.7-0.2,0.9-0.4l6.3-7.5c0.5-0.5,0.4-1.3-0.1-1.8s-1.3-0.4-1.8,0.1l0,0l-5.4,6.5L17.3,23.3z"/>
		<path id="Caminho_21124" class="st0" d="M25.2,46.8c-0.7,0-1.3,0.6-1.3,1.3l0,0v3.8h-10v-10h5c0.7,0,1.3-0.6,1.3-1.3
			s-0.6-1.3-1.3-1.3h-5c-1.4,0-2.5,1.1-2.5,2.5l0,0v10c0,1.4,1.1,2.5,2.5,2.5l0,0h10c1.4,0,2.5-1.1,2.5-2.5l0,0V48
			C26.4,47.4,25.9,46.8,25.2,46.8L25.2,46.8z"/>
		<path id="Caminho_21125" class="st0" d="M17.3,44.6c-0.5-0.5-1.3-0.5-1.8,0s-0.5,1.3,0,1.8l2.5,2.5c0.2,0.2,0.6,0.4,0.9,0.4H19
			c0.4,0,0.7-0.2,0.9-0.4l6.3-7.5c0.4-0.5,0.3-1.3-0.2-1.8c-0.5-0.4-1.3-0.3-1.7,0.2l-5.4,6.5L17.3,44.6z"/>
		<path id="Caminho_21126" class="st0" d="M31.5,21.7h10c0.7,0,1.3-0.6,1.3-1.3s-0.6-1.3-1.3-1.3h-10c-0.7,0-1.3,0.6-1.3,1.3
			S30.8,21.7,31.5,21.7z"/>
		<path id="Caminho_21127" class="st0" d="M49,26.7c0-0.7-0.6-1.3-1.3-1.3l0,0H31.5c-0.7,0-1.3,0.6-1.3,1.3s0.6,1.3,1.3,1.3l0,0
			h16.3C48.5,28,49,27.4,49,26.7z"/>
		<path id="Caminho_21128" class="st0" d="M41.5,40.5h-10c-0.7,0-1.3,0.6-1.3,1.3s0.6,1.3,1.3,1.3l0,0h10c0.7,0,1.3-0.6,1.3-1.3
			S42.2,40.5,41.5,40.5z"/>
		<path id="Caminho_21129" class="st0" d="M40.2,46.8h-8.8c-0.7,0-1.3,0.6-1.3,1.3s0.6,1.3,1.3,1.3h8.8c0.7,0,1.3-0.6,1.3-1.3
			S40.9,46.8,40.2,46.8z"/>
	</g>
</g>
</svg>
