<?xml version="1.0" encoding="utf-8"?>
<!-- Generator: Adobe Illustrator 27.0.1, SVG Export Plug-In . SVG Version: 6.00 Build 0)  -->
<svg version="1.1" id="Grupo_25833" xmlns="http://www.w3.org/2000/svg" xmlns:xlink="http://www.w3.org/1999/xlink" x="0px"
	 y="0px" viewBox="0 0 83 76" style="enable-background:new 0 0 83 76;" xml:space="preserve">
<style type="text/css">
	.st0{fill:#FF6D00;}
</style>
<g id="Grupo_25549">
	<path id="Caminho_21105" class="st0" d="M78.7,37L42.5,0.8c-0.3-0.3-0.6-0.4-1-0.4c-7.6,0-15.1,2.3-21.3,6.6
		c-0.7,0.5-0.8,1.4-0.4,2c0.5,0.7,1.4,0.8,2,0.4C27.2,5.7,33.5,3.6,40,3.3c0.1,2.6,0.5,5.2,1.1,7.8H29.7c-2.4,0-4.4,2-4.4,4.4v27.9
		h-1.6c-1.8,0-3.2,1.4-3.2,3.2c0,0.9,0.4,1.8,1.1,2.4l17.7,17.8c0.6,0.6,1.4,1,2.3,0.9l0,0c0.9,0,1.7-0.3,2.3-0.9L61.6,49
		c1.3-1.3,1.2-3.3,0-4.6c-0.6-0.6-1.4-0.9-2.3-0.9h-1.6v-9.7c5.6,3.5,11.9,5.5,18.5,5.7c-0.8,19.2-17,34-36.1,33.2
		c-19.2-0.8-34-17-33.2-36.1c0.3-6.5,2.4-12.8,6.1-18.2c0.5-0.7,0.3-1.6-0.4-2c-0.7-0.5-1.6-0.3-2,0.4C-1.3,33.8,3,57.2,20.2,69
		c15,10.3,35.1,8.4,48-4.4c7.1-7,11.1-16.6,11-26.6C79.2,37.6,79,37.2,78.7,37L78.7,37z M43.2,5.6L74,36.4
		C57.8,34.5,45,21.7,43.2,5.6z M56.2,46.4h3.1c0.2,0,0.3,0.1,0.3,0.3c0,0.1,0,0.1-0.1,0.2L41.7,64.8c-0.1,0.1-0.1,0.1-0.2,0.1l0,0
		c-0.1,0-0.1,0-0.2-0.1L23.6,47l-0.1-0.1c-0.1-0.1-0.1-0.3,0-0.4c0.1-0.1,0.1-0.1,0.2-0.1h3.1c0.8,0,1.5-0.7,1.5-1.5l0,0V15.5
		c0-0.8,0.7-1.5,1.5-1.5h12.3c1.9,5.4,4.9,10.3,9,14.3c1.2,1.2,2.4,2.3,3.7,3.3v13.3C54.7,45.7,55.4,46.4,56.2,46.4L56.2,46.4z"/>
	<path id="Caminho_21106" class="st0" d="M40,32.1c0-2.4-2-4.4-4.4-4.4s-4.4,2-4.4,4.4s2,4.4,4.4,4.4C38.1,36.5,40,34.5,40,32.1z
		 M34.2,32.1c0-0.8,0.7-1.5,1.5-1.5s1.5,0.7,1.5,1.5s-0.7,1.5-1.5,1.5l0,0C34.8,33.6,34.2,32.9,34.2,32.1z"/>
	<path id="Caminho_21107" class="st0" d="M47.4,39.5c-2.4,0-4.4,2-4.4,4.4s2,4.4,4.4,4.4s4.4-2,4.4-4.4l0,0
		C51.8,41.4,49.8,39.5,47.4,39.5z M47.4,45.3c-0.8,0-1.5-0.7-1.5-1.5s0.7-1.5,1.5-1.5s1.5,0.7,1.5,1.5
		C48.9,44.7,48.2,45.3,47.4,45.3z"/>
	<path id="Caminho_21108" class="st0" d="M47.3,27.9c-0.7-0.4-1.6-0.2-2,0.5L35.1,46.1c-0.4,0.7-0.2,1.6,0.5,2s1.6,0.2,2-0.5
		c0,0,0,0,0-0.1l10.2-17.6C48.3,29.2,48,28.3,47.3,27.9z"/>
	<path id="Caminho_21109" class="st0" d="M15.9,13.9c0.8,0,1.5-0.7,1.5-1.5s-0.7-1.5-1.5-1.5l0,0c-0.8,0-1.5,0.7-1.5,1.5
		S15.1,13.9,15.9,13.9z"/>
</g>
</svg>
